# xmcd CD database file
#
# Track frame offsets:
#	182
#	21917
#	39300
#	47022
#	75837
#	97915
#	116130
#	138425
#	155882
#	174685
#	200247
#	217105
#
# Disc length: 3207 seconds
#
# Revision: 15
# Processed by: cddbd v1.5.2PL0 Copyright (c) Steve Scherf et al.
# Submitted via: CDex 1.79
#
DISCID=a70c850c
DTITLE=Ben Harper - The will to live
DYEAR=1997
DGENRE=Blues
TTITLE0=Faded
TTITLE1=Homeless child
TTITLE2=Number three
TTITLE3=Roses from my friends
TTITLE4=Jah work
TTITLE5=I want to be ready
TTITLE6=The will to live
TTITLE7=Ashes
TTITLE8=Widow of a living man
TTITLE9=Glory and consequence
TTITLE10=Mama's trippin'
TTITLE11=I shall not walk alone
EXTD=YEAR: 1997
EXTT0=
EXTT1=
EXTT2=
EXTT3=
EXTT4=
EXTT5=
EXTT6=
EXTT7=
EXTT8=
EXTT9=
EXTT10=
EXTT11=
PLAYORDER=
